<svg width="51" height="50" viewBox="0 0 51 50" fill="none" xmlns="http://www.w3.org/2000/svg">
<g clip-path="url(#clip0_1945_138)">
<g clip-path="url(#clip1_1945_138)">
<path d="M24.4999 11C24.4977 9.15286 23.7935 7.30614 22.4999 6.00001C21.2064 4.69388 19.3292 4.00226 17.4999 4.00001V2.00001C17.4999 1.79469 17.6437 1.14519 17.4999 1.00001C17.3562 0.85483 16.7033 1.00001 16.4999 1.00001H9.49994C9.2966 1.00001 8.64371 0.85483 8.49994 1.00001C8.35616 1.14519 8.49994 1.79469 8.49994 2.00001V4.00001C6.67063 4.00226 4.79345 4.69388 3.49994 6.00001C2.20642 7.30614 1.50217 9.15286 1.49994 11V23C1.49994 23.2053 1.35616 23.8548 1.49994 24C1.64371 24.1452 2.2966 24 2.49994 24H5.49994V25C5.49994 25.2053 5.35616 25.8548 5.49994 26C5.64371 26.1452 6.2966 26 6.49994 26H19.4999C19.7033 26 20.3562 26.1452 20.4999 26C20.6437 25.8548 20.4999 25.2053 20.4999 25V24H23.4999C23.7033 24 24.3562 24.1452 24.4999 24C24.6437 23.8548 24.4999 23.2053 24.4999 23V11ZM17.4999 8.00001L16.4999 9.00001C16.3725 9.06432 16.5748 8.87763 16.4999 9.00001C16.425 9.12239 16.4999 9.85615 16.4999 10V11L13.4999 14L15.4999 6.00001H16.4999L17.4999 8.00001ZM9.49994 9.00001L8.49994 8.00001L9.49994 6.00001H10.4999L12.4999 13L9.49994 11V10C9.5 9.85615 9.57482 9.12239 9.49994 9.00001C9.62738 9.06432 9.42505 8.87763 9.49994 9.00001ZM11.4999 6.00001H14.4999L13.4999 10L11.4999 6.00001ZM9.49994 3.00001H16.4999V4.00001H9.49994V3.00001ZM5.49994 12V23H3.49994V11C3.50202 9.73075 3.69347 8.97361 4.49994 8.00001C5.3064 7.02641 6.2631 6.22644 7.49994 6.00001L6.49994 9.00001C6.426 8.84593 6.4652 9.1676 6.49994 9.00001C6.57388 9.15409 7.34815 8.92368 7.49994 9.00001L8.49994 10V12C8.45224 11.8973 8.49998 12.1135 8.49994 12C8.41359 11.9274 8.54763 12.1028 8.49994 12L11.4999 15C11.4818 15.0694 11.4985 15.9282 11.4999 16V24H6.49994V12H5.49994ZM22.4999 23H20.4999V12H19.4999V24H13.4999V16L17.4999 12C17.4522 12.1028 17.5863 11.9274 17.4999 12C17.4999 12.1135 17.5476 11.8973 17.4999 12V10L18.4999 9.00001C18.651 8.92386 19.4261 9.15328 19.4999 9.00001C19.5338 9.16702 19.5738 8.84674 19.4999 9.00001L18.4999 6.00001C19.7373 6.22653 20.6934 7.02577 21.4999 8.00001C22.3065 8.97425 22.4986 9.73022 22.4999 11V23ZM19.4999 27H6.49994C6.2966 27 6.64371 27.8548 6.49994 28C6.35616 28.1452 6.49994 27.7947 6.49994 28V48C6.49994 48.2053 6.35616 48.8548 6.49994 49C6.2966 49 6.64371 49.1452 6.49994 49H11.4999C11.3582 49.1288 11.6907 49.001 11.4999 49C11.6417 48.8712 12.4809 48.1916 12.4999 48L13.4999 41V48C13.519 48.1916 14.3582 48.8712 14.4999 49C14.3092 49.001 14.6417 49.1288 14.4999 49H19.4999C19.3562 49.1452 19.7033 49 19.4999 49C19.6437 48.8548 19.4999 48.2053 19.4999 48V28C19.4999 27.7947 19.6437 28.1452 19.4999 28C19.3562 27.8548 19.7033 27 19.4999 27ZM18.4999 47H15.4999L13.4999 33C13.481 32.809 13.6409 33.1288 13.4999 33C13.359 32.8713 13.69 33 13.4999 33C13.3099 33 12.6409 32.8713 12.4999 33C12.359 33.1288 12.5189 32.809 12.4999 33L10.4999 47H7.49994V29H18.4999V47Z" fill="white"/>
<path d="M14.5 16H16.5V18H14.5V16ZM14.5 20H16.5V21H14.5V20ZM43.5 23L45.5 11C45.4999 11.0478 45.5087 10.953 45.5 11V10C45.4997 9.35926 45.7684 8.5824 45.5 8.00001C45.2316 7.41763 44.9878 7.41813 44.5 7.00001V2.00001C44.5 1.79469 43.6459 1.1452 43.5 1.00001C43.3541 0.854825 43.7063 1.00001 43.5 1.00001H40.5C40.2937 1.00001 39.6459 0.854825 39.5 1.00001C39.3541 1.1452 39.5 1.79469 39.5 2.00001V6.00001C38.4695 6.42553 37.9702 6.99299 37.5 8.00001C37.0298 6.99299 35.5305 6.42553 34.5 6.00001V2.00001C34.5 1.79469 34.6459 1.1452 34.5 1.00001C34.3541 0.854825 33.7063 1.00001 33.5 1.00001H30.5C30.2937 1.00001 30.6459 0.854825 30.5 1.00001C30.3541 1.1452 30.5 1.79469 30.5 2.00001V7.00001C30.0122 7.41813 28.7684 7.41763 28.5 8.00001C28.2316 8.5824 28.5003 9.35926 28.5 10V11C28.4913 10.953 28.5001 11.0478 28.5 11L30.5 23C26.5089 28.1066 24.5083 34.5301 24.5 41V48C24.5 48.2053 24.3541 48.8548 24.5 49C24.6459 49.1452 25.2937 49 25.5 49H48.5C48.7063 49 49.3541 49.1452 49.5 49C49.6459 48.8548 49.5 48.2053 49.5 48V41C49.4917 34.5301 47.4911 28.1066 43.5 23ZM40.5 3.00001H42.5V6.00001C42.0552 5.85599 41.9678 6.00013 41.5 6.00001C41.4401 6.00001 40.5599 5.99769 40.5 6.00001V3.00001ZM31.5 3.00001H33.5V6.00001C33.4401 6.00001 32.5599 6.00001 32.5 6.00001C32.0322 6.00013 31.9448 5.85599 31.5 6.00001V3.00001ZM30.5 11V10C30.4997 9.32149 30.066 8.52328 30.5 8.00001C30.934 7.47674 31.8306 7.12831 32.5 7.00001C33.1694 6.87172 33.9019 7.67455 34.5 8.00001C35.0981 8.32548 35.2471 8.3699 35.5 9.00001L36.5 11C36.3712 10.9131 36.5576 11.1439 36.5 11C36.6288 11.087 37.3444 11 37.5 11C37.3712 11.087 37.6556 11 37.5 11C37.4424 11.1439 37.6288 10.9131 37.5 11L38.5 9.00001C38.7529 8.3699 38.9019 8.32548 39.5 8.00001C40.0981 7.67455 40.8306 6.87172 41.5 7.00001C42.1694 7.12831 43.066 7.47674 43.5 8.00001C43.934 8.52328 44.5003 9.32149 44.5 10V11L42.5 20H31.5L30.5 11ZM41.5 23H32.5L31.5 21H42.5L41.5 23ZM47.5 47H26.5V41C26.5094 34.8853 27.7315 28.829 31.5 24H42.5C46.2685 28.829 47.4906 34.8853 47.5 41V47Z" fill="white"/>
</g>
</g>
<defs>
<clipPath id="clip0_1945_138">
<rect width="50" height="50" fill="white" transform="translate(0.5)"/>
</clipPath>
<clipPath id="clip1_1945_138">
<rect width="50" height="50" fill="white" transform="translate(0.5)"/>
</clipPath>
</defs>
</svg>
