<svg width="51" height="50" viewBox="0 0 51 50" fill="none" xmlns="http://www.w3.org/2000/svg">
<g clip-path="url(#clip0_1945_114)">
<g clip-path="url(#clip1_1945_114)">
<g clip-path="url(#clip2_1945_114)">
<path d="M19.5 19V18C19.5 17.0054 19.2501 15.7033 18.5 15C17.7499 14.2967 16.5609 14 15.5 14C14.4391 14 13.2501 14.2967 12.5 15C11.7499 15.7033 11.5 17.0054 11.5 18V19C11.5 19.9946 11.7499 21.2967 12.5 22C13.2501 22.7033 14.4391 23 15.5 23C16.5609 23 17.7499 22.7033 18.5 22C19.2501 21.2967 19.5 19.9946 19.5 19ZM13.5 19V18C13.5 17.4033 13.0499 16.422 13.5 16C13.9501 15.578 14.8635 16 15.5 16C16.1365 16 17.0499 15.578 17.5 16C17.9501 16.422 17.5 17.4033 17.5 18V19C17.5 19.5967 17.9501 20.578 17.5 21C17.0499 21.422 16.1365 22 15.5 22C14.8635 22 13.9501 21.422 13.5 21C13.0499 20.578 13.5 19.5967 13.5 19Z" fill="white"/>
<path d="M43.5001 50C43.71 50 44.3516 50.1454 44.5001 50C44.6485 49.8547 44.5001 49.2056 44.5001 49V34C44.5001 33.7945 44.6485 33.1454 44.5001 33C44.3516 32.8547 43.71 33 43.5001 33H31.5001V30H37.5001C37.3572 30.1185 37.6873 30 37.5001 30C37.643 29.8816 38.4692 29.1809 38.5001 29L39.5001 20C39.519 19.889 39.5306 20.1086 39.5001 20C39.4696 19.8915 39.5744 19.086 39.5001 19C39.4258 18.9141 39.6044 19.0474 39.5001 19C39.3958 18.9527 38.6151 19.0001 38.5001 19H24.5001C24.3128 19.0001 24.643 18.8816 24.5001 19C24.3572 19.1185 23.531 19.8192 23.5001 20L22.5001 29C22.4696 28.8915 22.4811 29.1111 22.5001 29C22.5306 29.1086 22.4258 29.9141 22.5001 30C22.3957 29.9527 22.5744 30.086 22.5001 30C22.6044 30.0474 23.3851 30 23.5001 30H30.5001V33H26.5001C26.785 32.5309 27.4968 31.5458 27.5001 31C27.5001 30.8092 26.6301 31.1422 26.5001 31C26.3701 30.8579 26.6938 31.021 26.5001 31L19.5001 30L15.5001 25C15.4258 24.9128 15.6051 25.0482 15.5001 25C15.395 24.9518 15.6161 25.0001 15.5001 25H13.5001C12.4506 25.0013 11.2421 25.2736 10.5001 26C9.75801 26.7265 9.50132 27.9727 9.50007 29V38C9.50298 38.8413 9.97614 40.3332 10.5001 41H8.50007V28C8.50007 27.7945 7.64853 27.1454 7.50007 27C7.3516 26.8547 7.71003 27 7.50007 27C7.2901 27 6.64853 26.8547 6.50007 27C6.3516 27.1454 6.50007 27.7945 6.50007 28V41C6.50007 41.2056 6.3516 41.8547 6.50007 42C6.64853 42.1454 7.2901 42 7.50007 42H11.5001V48H8.50007C8.2901 48 8.64853 48.8547 8.50007 49C8.3516 49.1454 8.50007 48.7945 8.50007 49C8.50007 49.2056 8.3516 49.8547 8.50007 50C8.2901 50 8.64853 50.1454 8.50007 50H15.5001C15.3516 50.1454 15.71 50 15.5001 50C15.6485 49.8547 16.5001 49.2056 16.5001 49C16.5001 48.7945 15.6485 49.1454 15.5001 49C15.3516 48.8547 15.71 48 15.5001 48H12.5001V42H18.5001L22.5001 48C22.4803 47.9754 22.5162 48.027 22.5001 48C22.8698 48.4802 22.9507 49.7311 23.5001 50C24.0495 50.2689 24.8858 49.9985 25.5001 50H27.5001C27.6366 50 28.3812 50.0659 28.5001 50C28.4297 50.1146 28.6189 49.9342 28.5001 50C28.5704 49.8854 28.4964 49.1337 28.5001 49C28.5037 48.8664 28.5641 49.1181 28.5001 49L22.5001 37C22.469 36.944 22.5442 37.0469 22.5001 37C22.1289 36.6004 21.0044 36.2189 20.5001 36C19.9957 35.7812 20.0518 36.0009 19.5001 36H16.5001V35H42.5001V49C42.5001 49.2056 43.3516 49.8547 43.5001 50C43.6485 50.1454 43.2901 50 43.5001 50ZM25.5001 21H38.5001L36.5001 28H24.5001L25.5001 21ZM14.5001 29C14.4351 28.9205 14.5912 29.0491 14.5001 29C14.409 28.9509 13.6034 29.0113 13.5001 29C13.3967 28.9888 13.5999 28.9717 13.5001 29C13.4002 29.0284 13.5813 28.9364 13.5001 29C13.4189 29.0636 12.5502 28.9108 12.5001 29C12.4499 29.0892 12.5115 29.8989 12.5001 30C12.4711 29.9023 12.4886 30.1012 12.5001 30C12.529 30.0978 13.4351 29.9205 13.5001 30L15.5001 33V37C15.3516 36.8547 15.5001 37.2056 15.5001 37C15.6485 37.1454 16.2901 38 16.5001 38H19.5001C19.8157 38.0007 20.2091 37.8803 20.5001 38C20.791 38.1198 21.2787 37.7798 21.5001 38L26.5001 48H25.5001C25.1392 47.9991 24.8243 48.1549 24.5001 48C24.1758 47.8451 23.7229 48.2779 23.5001 48L19.5001 41C19.4305 40.882 19.6207 41.0681 19.5001 41C19.3794 40.932 19.6393 40.9998 19.5001 41H13.5001C12.8702 41 11.9455 40.4361 11.5001 40C11.0547 39.564 11.5001 38.6167 11.5001 38V29C11.5001 28.3834 11.0547 27.4361 11.5001 27C11.9455 26.564 12.8702 27 13.5001 27H14.5001L18.5001 31C18.631 31.1539 19.2967 30.9779 19.5001 31L25.5001 32C25.3703 32.2618 24.7519 32.8456 24.5001 33C24.2482 33.1545 23.7973 33 23.5001 33H17.5001L14.5001 29Z" fill="white"/>
<path d="M1.49997 20L25.5 2.00002L36.5 10C36.6155 10.0894 37.3547 10.9852 37.5 11C37.3688 11.0643 37.6453 11.0148 37.5 11C37.6311 10.9358 37.4226 10.1239 37.5 10C37.5773 9.87614 38.4998 10.146 38.5 10V6.00002H42.5V15C42.4474 14.8929 42.5 15.1193 42.5 15C42.4056 14.927 42.5525 15.1071 42.5 15L49.5 20C49.2944 20.0262 49.6639 20.1268 49.5 20C49.7055 19.9738 50.3732 20.1639 50.5 20C50.6268 19.8361 50.5262 19.2056 50.5 19C50.4737 18.7945 50.6639 19.1268 50.5 19L44.5 14V5.00002C44.5 4.79282 44.6465 5.14653 44.5 5.00002C44.3535 4.85351 43.7072 5.00002 43.5 5.00002H37.5C37.2928 5.00002 36.6465 4.85351 36.5 5.00002C36.3535 5.14653 36.5 4.79282 36.5 5.00002V8.00002L25.5 1.79708e-05C25.3631 -0.105903 25.673 1.79708e-05 25.5 1.79708e-05C25.3269 1.79708e-05 25.6368 -0.105903 25.5 1.79708e-05L0.499971 19C0.336076 19.1268 0.526197 18.7945 0.499971 19C0.473745 19.2056 0.373165 19.8361 0.499971 20C0.626778 20.1639 1.29441 19.9738 1.49997 20C1.70553 20.0262 1.33608 20.1268 1.49997 20ZM31.5 44C31.3865 44.0001 31.6029 43.9523 31.5 44C31.397 44.0478 31.5733 43.9134 31.5 44C31.4267 44.0866 30.5301 43.8906 30.5 44C30.4699 44.1094 30.4812 44.8881 30.5 45L31.5 49C31.5305 49.1823 32.3589 49.8806 32.5 50C32.3152 50 32.641 50.1195 32.5 50H37.5C37.3589 50.1195 37.6848 50 37.5 50C37.641 49.8806 37.4695 49.1823 37.5 49L38.5 45C38.5187 44.8881 38.5301 44.1094 38.5 44C38.4699 43.8906 38.5733 44.0866 38.5 44C38.4267 43.9134 38.6029 44.0478 38.5 44C38.397 43.9523 38.6135 44.0001 38.5 44H35.5V43L37.5 41C37.4405 41.0856 37.588 40.9443 37.5 41C37.4784 41.1019 37.5595 40.9145 37.5 41C37.5216 40.8981 38.5196 40.1023 38.5 40C38.4803 39.8977 37.5578 40.0867 37.5 40C37.4421 39.9134 37.5869 40.0574 37.5 40C37.413 39.9426 37.6024 40.0192 37.5 40C37.3976 39.9809 37.6018 39.9779 37.5 40C37.3982 40.0221 36.5852 39.9401 36.5 40L35.5 41V39C35.5 38.7928 35.6465 39.1465 35.5 39C35.3535 38.8535 34.7072 38 34.5 38C34.2928 38 34.6465 38.8535 34.5 39C34.3535 39.1465 34.5 38.7928 34.5 39V41L32.5 40C32.4147 39.9401 32.6018 40.0221 32.5 40C32.3982 39.9779 32.6024 39.9809 32.5 40C32.3976 40.0192 32.5869 39.9426 32.5 40C32.413 40.0574 31.5578 39.9134 31.5 40C31.4421 40.0867 31.5196 39.8977 31.5 40C31.4803 40.1023 31.4784 40.8981 31.5 41C31.4405 40.9145 31.5216 41.1019 31.5 41C31.5595 41.0856 32.4119 40.9443 32.5 41L34.5 43V44H31.5ZM36.5 48H33.5L32.5 45H37.5L36.5 48Z" fill="white"/>
</g>
</g>
</g>
<defs>
<clipPath id="clip0_1945_114">
<rect width="50" height="50" fill="white" transform="translate(0.5)"/>
</clipPath>
<clipPath id="clip1_1945_114">
<rect width="50" height="50" fill="white" transform="translate(0.5)"/>
</clipPath>
<clipPath id="clip2_1945_114">
<rect width="50" height="50" fill="white" transform="translate(0.5)"/>
</clipPath>
</defs>
</svg>
