<svg width="50" height="50" viewBox="0 0 50 50" fill="none" xmlns="http://www.w3.org/2000/svg">
<g clip-path="url(#clip0_1945_126)">
<g clip-path="url(#clip1_1945_126)">
<g clip-path="url(#clip2_1945_126)">
<path d="M12.0001 44H1.00009C0.784606 44 0.152468 43.8515 9.45181e-05 44C-0.152279 44.1485 9.45181e-05 43.79 9.45181e-05 44V48C9.45181e-05 48.6299 0.542975 48.5546 1.00009 49C1.45721 49.4454 1.35363 50 2.00009 50H11.0001C11.6466 50 11.543 49.4454 12.0001 49C12.4572 48.5546 13.0001 48.6299 13.0001 48V44C13.0001 43.79 13.1525 44.1485 13.0001 44C12.8477 43.8515 12.2156 44 12.0001 44ZM11.0001 48C11.0001 48.21 11.1525 47.8515 11.0001 48C10.8477 48.1485 11.2156 48 11.0001 48H2.00009C1.78461 48 2.15247 48.1485 2.00009 48C1.84772 47.8515 2.00009 48.21 2.00009 48V45H11.0001V48ZM11.0001 31H2.00009C1.35363 31 1.45721 31.5546 1.00009 32C0.542975 32.4454 9.45181e-05 32.3701 9.45181e-05 33V41C9.45181e-05 41.21 -0.152279 41.8515 9.45181e-05 42C0.152468 42.1485 0.784606 42 1.00009 42C0.847721 42.1485 1.21558 42 1.00009 42C1.15247 41.8515 2.00009 41.21 2.00009 41V33C1.84772 33.1485 2.00009 32.79 2.00009 33C1.78461 33 2.15247 32.8515 2.00009 33H11.0001C10.8477 32.8515 11.2156 33 11.0001 33C11.0001 32.79 11.1525 33.1485 11.0001 33V41C11.0001 41.21 11.8477 41.8515 12.0001 42C11.7846 42 12.1525 42.1485 12.0001 42C12.2156 42 12.8477 42.1485 13.0001 42C13.1525 41.8515 13.0001 41.21 13.0001 41V33C13.0001 32.3701 12.4572 32.4454 12.0001 32C11.543 31.5546 11.6466 31 11.0001 31Z" fill="white"/>
<path d="M3.0001 41C3.0001 41.2072 2.85319 41.8535 3.0001 42C3.147 42.1465 3.79235 42 4.0001 42C3.85319 42.1465 4.20785 42 4.0001 42C4.147 41.8535 5.0001 41.2072 5.0001 41C5.0001 40.5856 4.70629 40.293 5.0001 40C5.2939 39.707 5.58459 40 6.0001 40C6.4156 40 6.70629 39.707 7.0001 40C7.2939 40.293 8.0001 40.5856 8.0001 41C8.0001 41.2072 7.85319 41.8535 8.0001 42C7.79235 42 8.147 42.1465 8.0001 42C8.20785 42 8.85319 42.1465 9.0001 42C9.147 41.8535 9.0001 41.2072 9.0001 41C8.99886 40.5141 9.22033 40.4335 9.0001 40C8.77986 39.5666 8.39227 39.2884 8.0001 39C8.31275 38.5959 7.99828 38.5105 8.0001 38C8.0001 37.3784 8.44081 36.4396 8.0001 36C7.55939 35.5605 6.62336 35 6.0001 35C5.37684 35 4.44081 35.5605 4.0001 36C3.55939 36.4396 4.0001 37.3784 4.0001 38C4.00278 38.5091 3.68826 38.597 4.0001 39C3.6074 39.2888 3.22036 39.5658 3.0001 40C2.77984 40.4342 3.00072 40.5134 3.0001 41ZM5.0001 38C5.0001 37.8455 4.91402 37.1285 5.0001 37C5.08617 36.8715 5.85696 37.0592 6.0001 37C5.84815 36.9699 6.14323 36.9409 6.0001 37C6.15205 37.0302 6.89055 36.8908 7.0001 37C6.96987 36.8485 7.10965 37.1093 7.0001 37C7.03032 37.1516 7.05939 37.8573 7.0001 38C6.94081 38.1428 7.12892 37.9142 7.0001 38C6.87128 38.0859 6.15503 38 6.0001 38C5.79235 38 6.147 38.1465 6.0001 38C5.85319 37.8535 5.0001 38.2072 5.0001 38ZM18.0001 38C17.5819 40.8587 15.9083 43.8265 14.0001 46C13.8827 46.158 13.9788 45.8046 14.0001 46C14.0214 46.1955 13.8514 46.8709 14.0001 47C14.1488 47.1291 14.803 47.0059 15.0001 47C14.8594 47.1378 15.1971 46.9941 15.0001 47C17.1072 44.5992 18.54 41.1575 19.0001 38C19.0175 37.8973 19.0241 38.1014 19.0001 38C18.9761 37.8986 19.0617 38.0842 19.0001 38C18.9385 37.9159 19.0896 38.0537 19.0001 38C18.9106 37.9463 19.1035 38.0149 19.0001 38C18.8967 37.9852 18.1012 37.9737 18.0001 38C18.083 37.9366 17.899 38.0264 18.0001 38C18.0518 37.9095 17.9172 38.0634 18.0001 38C18.0125 37.8966 17.9484 38.0906 18.0001 38ZM39.0001 40C39.008 39.5479 39.2462 38.3798 39.0001 38C38.754 37.6202 38.4167 37.1786 38.0001 37C37.6871 36.8721 37.1739 37.2895 37.0001 37C36.8263 36.7106 36.9655 36.3357 37.0001 36C37.0347 35.6644 36.7708 35.2481 37.0001 35C37.2294 34.752 37.6675 34.0617 38.0001 34C38.2266 33.9574 38.777 33.9425 39.0001 34C39.2232 34.0576 38.8227 34.8533 39.0001 35C39.1775 35.1468 39.9022 34.7919 40.0001 35C40.098 35.2081 40.0003 35.7702 40.0001 36C39.8532 35.8535 40.0001 36.2072 40.0001 36C40.147 36.1465 40.7923 37 41.0001 37C41.2079 37 40.8532 36.1465 41.0001 36C41.0001 36.2072 41.147 35.8535 41.0001 36C40.9996 35.4341 41.2922 34.4852 41.0001 34C40.708 33.5149 40.5007 33.2664 40.0001 33C39.4995 32.7337 38.5668 32.9718 38.0001 33C37.4334 33.0282 37.4716 32.6853 37.0001 33C36.5286 33.3148 35.2423 34.4883 35.0001 35C34.7579 35.5118 34.9441 35.4369 35.0001 36C35.0561 36.5631 35.6618 37.5457 36.0001 38C36.3384 38.4543 36.4757 38.7839 37.0001 39C36.9267 38.878 37.1284 39.0623 37.0001 39C37.0735 39.1221 37.0054 39.8578 37.0001 40C36.2387 41.118 34.0001 44.2508 34.0001 46C34.0001 47.036 34.2656 48.2675 35.0001 49C35.7346 49.7326 36.9613 50 38.0001 50C39.0389 50 40.2656 49.7326 41.0001 49C41.7346 48.2675 42.0001 47.036 42.0001 46C42.0001 44.2508 39.7615 41.118 39.0001 40ZM38.0001 48C37.3768 48 37.4408 48.4396 37.0001 48C36.5594 47.5605 36.0001 46.6216 36.0001 46C36.0001 45.1469 36.8729 42.7571 38.0001 41C39.1273 42.7571 41.0001 45.1477 41.0001 46C41.0001 46.6216 40.4408 47.5605 40.0001 48C39.5594 48.4396 38.6234 48 38.0001 48ZM33.0001 48H14.0001C13.7923 48 14.147 48.8535 14.0001 49C13.8532 49.1465 14.0001 48.7928 14.0001 49C14.0001 49.2072 13.8532 49.8535 14.0001 50C13.7923 50 14.147 50.1465 14.0001 50H33.0001C32.8532 50.1465 33.2078 50 33.0001 50C33.147 49.8535 34.0001 49.2072 34.0001 49C34.0001 48.7928 33.147 49.1465 33.0001 49C32.8532 48.8535 33.2078 48 33.0001 48ZM31.0001 37C30.8981 37.0138 31.0891 37.9484 31.0001 38C30.9111 38.0517 31.0624 37.9183 31.0001 38C30.9377 38.0817 31.0263 37.9007 31.0001 38C30.9739 38.0993 30.9862 37.8983 31.0001 38C31.2375 39.7479 31.2252 41.4146 32.0001 43C32.091 43.1865 32.8036 43.9323 33.0001 44C32.8131 44.0907 33.1966 44.0678 33.0001 44C33.1871 43.9094 33.9322 43.196 34.0001 43C34.068 42.8041 34.091 43.1865 34.0001 43C33.2984 41.5637 32.2153 39.5833 32.0001 38C31.9863 37.8982 32.0519 38.0888 32.0001 38C31.9482 37.9112 32.0821 38.0622 32.0001 38C31.9181 37.9378 32.0997 37.0261 32.0001 37C31.9005 36.9739 31.1022 36.9861 31.0001 37ZM47.0001 40C47.008 39.5479 47.2462 38.3798 47.0001 38C46.754 37.6202 45.4167 37.1786 45.0001 37C44.6871 36.8721 45.1739 37.2895 45.0001 37C44.8263 36.7106 44.9655 36.3357 45.0001 36C45.0347 35.6644 44.7708 35.2481 45.0001 35C45.2294 34.752 45.6675 34.0617 46.0001 34C45.777 33.9425 46.2266 33.9574 46.0001 34C46.2232 34.0576 46.8227 34.8533 47.0001 35C47.1775 35.1468 47.9022 34.7919 48.0001 35C48.098 35.2081 48.0003 35.7702 48.0001 36C47.8532 35.8535 48.0001 36.2072 48.0001 36C48.147 36.1465 47.7923 37 48.0001 37C48.2079 37 48.8532 36.1465 49.0001 36C49.0001 36.2072 49.147 35.8535 49.0001 36C48.9996 35.4341 49.2922 34.4852 49.0001 34C48.708 33.5149 48.5007 33.2664 48.0001 33C47.4995 32.7337 46.5668 32.9718 46.0001 33C45.4334 33.0282 44.4716 32.6853 44.0001 33C43.5286 33.3148 43.2423 34.4883 43.0001 35C42.7579 35.5118 42.9441 35.4369 43.0001 36C43.0561 36.5631 43.6618 37.5457 44.0001 38C44.3384 38.4543 44.4757 38.7839 45.0001 39C44.9267 38.878 45.1284 39.0623 45.0001 39C45.0735 39.1221 45.0054 39.8578 45.0001 40C44.2369 41.127 43.6397 41.799 43.0001 43C42.9045 43.1841 42.9372 43.8025 43.0001 44C43.063 44.1976 43.8155 43.9047 44.0001 44C43.802 44.0628 44.1847 44.0953 44.0001 44C44.1982 43.9372 44.9045 44.1841 45.0001 44C45.4803 43.0742 45.5638 41.6828 46.0001 41C47.1265 42.7578 48.0001 45.15 48.0001 46C48.0001 46.6216 48.4408 47.5605 48.0001 48C47.5594 48.4396 46.6234 48 46.0001 48C45.4395 47.998 45.4207 48.3697 45.0001 48C44.9222 47.933 44.0978 48.0322 44.0001 48C43.9024 47.9679 44.1027 47.9924 44.0001 48C43.8975 48.0076 44.092 47.9539 44.0001 48C43.9082 48.0462 43.0673 47.9223 43.0001 48C42.9329 48.0777 43.0323 47.9026 43.0001 48C42.9679 48.0975 42.9925 48.8977 43.0001 49C42.9538 48.9084 43.0077 49.1023 43.0001 49C43.0464 49.0917 43.9222 48.933 44.0001 49C44.5659 49.4902 45.2583 49.8936 46.0001 50C46.7419 50.1065 47.3187 50.3113 48.0001 50C48.6815 49.6888 48.5964 48.6297 49.0001 48C49.4038 47.3703 50.0027 46.7475 50.0001 46C50.0001 44.2508 47.7615 41.118 47.0001 40ZM25.0001 38C36.8284 38 42.8431 17.8977 44.0001 14C44.1466 13.5076 45.0007 13.5137 45.0001 13C44.9981 11.693 43.8674 9.97988 43.0001 9.00002C42.1328 8.02017 41.3002 7.16418 40.0001 7.00002H37.0001H35.0001C34.9692 6.99347 34.0313 7.00493 34.0001 7.00002C33.8014 6.97129 34.1624 6.88223 34.0001 7.00002C33.8378 7.11782 34.0338 6.80267 34.0001 7.00002C33.9657 7.20015 33.8874 7.83094 34.0001 8.00002C33.8017 7.95428 34.1128 8.1691 34.0001 8.00002C33.9727 7.9969 34.0267 8.00549 34.0001 8.00002H36.0001C35.4873 10.6717 34.1022 13.2668 32.0001 15C29.898 16.7333 27.7276 18 25.0001 18C22.2726 18 19.1022 16.7333 17.0001 15C14.898 13.2668 13.5129 10.6717 13.0001 8.00002H16.0001C17.0962 7.85857 18.1729 7.73103 19.0001 7.00002C19.8273 6.26902 19.7273 5.06822 20.0001 4.00002L21.0001 2.00002H29.0001L30.0001 4.00002C30.1755 4.68738 30.5751 5.43137 31.0001 6.00002C30.7974 5.97128 31.1249 6.16193 31.0001 6.00002C31.2028 6.02876 31.835 6.12084 32.0001 6.00002C31.9668 6.2015 32.1652 5.87921 32.0001 6.00002C32.0334 5.79854 32.1175 5.16729 32.0001 5.00002C31.6963 4.5945 31.1272 4.49008 31.0001 4.00002L30.0001 1.00002C29.9577 0.830546 30.1383 0.107368 30.0001 2.39909e-05C29.8619 -0.10732 30.1752 -0.000451602 30.0001 2.39909e-05H20.0001C19.8254 7.21328e-05 20.1378 -0.107279 20.0001 2.39909e-05C19.8624 0.107327 19.0424 0.830936 19.0001 1.00002V4.00002C18.8051 4.76281 17.5908 5.47798 17.0001 6.00002C16.4093 6.52207 15.7828 6.89882 15.0001 7.00002H10.0001C9.23619 7.10399 8.65402 7.59269 8.0001 8.00002C7.34617 8.40736 6.42895 9.36101 6.0001 10C5.57125 10.639 5.12839 11.2418 5.0001 12C4.87181 12.7582 5.80525 13.256 6.0001 14C7.03175 17.9102 12.4104 38 25.0001 38ZM33.0001 18C33.7701 18.8938 34.0001 19.318 34.0001 20C34.0001 20.4144 34.2939 20.707 34.0001 21C33.7063 21.2931 33.4156 22 33.0001 22C32.5846 22 32.2939 21.2931 32.0001 21C31.7063 20.707 31.0001 20.4144 31.0001 20C31.0001 19.318 32.2301 18.8938 33.0001 18ZM27.0001 24C27.0001 24.6216 27.4408 25.5605 27.0001 26C26.5594 26.4396 25.6234 27 25.0001 27C24.3768 27 23.4408 26.4396 23.0001 26C22.5594 25.5605 23.0001 24.6216 23.0001 24C23.0001 22.6508 24.0476 21.086 25.0001 20C25.9526 21.086 27.0001 22.6508 27.0001 24ZM19.0001 20C19.0001 20.4144 18.2939 20.707 18.0001 21C17.7063 21.2931 17.4156 22 17.0001 22C16.5846 22 16.2939 21.2931 16.0001 21C15.7063 20.707 16.0001 20.4144 16.0001 20C16.0001 19.318 16.2301 18.8938 17.0001 18C17.7701 18.8938 19.0001 19.318 19.0001 20ZM10.0001 9.00002H12.0001C12.5396 11.9395 13.7452 14.0322 16.0001 16C15.2732 16.7938 14.0001 18.5313 14.0001 20C14.0001 20.8288 14.4125 22.414 15.0001 23C15.5877 23.5861 16.1691 23 17.0001 23C17.8311 23 18.4125 23.5861 19.0001 23C19.5877 22.414 20.0001 20.8288 20.0001 20C19.9576 19.3276 20.3547 18.5735 20.0001 18C21.1653 18.5081 21.7382 18.8434 23.0001 19C22.0115 20.2125 21.0001 22.3078 21.0001 24C21.0001 25.036 21.2656 26.2675 22.0001 27C22.7346 27.7326 23.9613 28 25.0001 28C26.0389 28 27.2656 27.7326 28.0001 27C28.7346 26.2675 29.0001 25.036 29.0001 24C29.0001 22.3078 27.9887 20.2125 27.0001 19C28.2623 18.8435 28.8347 18.5082 30.0001 18C29.6453 18.5735 30.0428 19.3275 30.0001 20C30.0001 20.8288 30.4125 22.414 31.0001 23C31.5877 23.5861 32.1691 23 33.0001 23C33.8311 23 34.4125 23.5861 35.0001 23C35.5877 22.414 36.0001 20.8288 36.0001 20C36.0001 18.5313 34.727 16.7961 34.0001 16C36.255 14.0322 37.4606 11.9395 38.0001 9.00002H40.0001C40.9221 9.11604 41.3853 9.30504 42.0001 10C42.6149 10.695 42.9996 12.0732 43.0001 13C43.0001 13.3635 43.104 13.6516 43.0001 14C41.9034 17.7086 35.7177 36 25.0001 36C13.5634 36 7.98083 17.7172 7.0001 14C6.91254 13.6604 6.99573 13.3506 7.0001 13C7.00118 12.0736 7.38537 10.6945 8.0001 10C8.61482 9.30553 9.07855 9.11599 10.0001 9.00002Z" fill="white"/>
</g>
</g>
</g>
<defs>
<clipPath id="clip0_1945_126">
<rect width="50" height="50" fill="white"/>
</clipPath>
<clipPath id="clip1_1945_126">
<rect width="50" height="50" fill="white"/>
</clipPath>
<clipPath id="clip2_1945_126">
<rect width="50" height="50" fill="white"/>
</clipPath>
</defs>
</svg>
