<svg width="50" height="50" viewBox="0 0 50 50" fill="none" xmlns="http://www.w3.org/2000/svg">
<g clip-path="url(#clip0_1945_149)">
<g clip-path="url(#clip1_1945_149)">
<g clip-path="url(#clip2_1945_149)">
<path d="M4 31H11C11.4305 31 12 31.5613 12 32V49C12 49.4383 11.4305 50 11 50H4C3.5691 50 3 49.4387 3 49V32C3 31.5617 3.5691 31 4 31ZM26 31H45C45.2077 31.0008 45.8532 30.8504 46 31C46.1468 31.1496 45.9993 31.7885 46 32V49C45.9992 49.2114 46.1468 49.8505 46 50C45.8532 50.1495 45.2077 49.9991 45 50H26C25.7922 49.9992 26.147 50.1495 26 50C25.853 49.8505 26.0009 49.2115 26 49V32C26.001 31.7885 25.853 31.1495 26 31C26.147 30.8505 25.7923 31.0008 26 31ZM44 33H27V48H44V33ZM10 33H5V48H10V33Z" fill="white"/>
<path d="M30.9999 35H40.9999C41.4355 35 42.7098 34.7232 42.9999 35C42.9893 34.9777 43.0114 35.0223 42.9999 35C43.265 35.2829 42.9992 35.614 42.9999 36V40C42.9981 40.4106 43.2917 41.7082 42.9999 42C42.8562 42.1467 42.19 41.9202 41.9999 42C41.8099 42.0798 41.2064 41.9997 40.9999 42H30.9999C30.575 42 30.2913 42.2877 29.9999 42C29.8511 41.8582 30.0805 41.1884 29.9999 41C29.9194 40.8116 29.9992 40.2046 29.9999 40V36C30.0017 35.5867 29.7049 35.2923 29.9999 35C30.295 34.7077 30.5827 35.0019 30.9999 35ZM35.9999 37C36.4355 37 36.9999 37.5682 36.9999 38C36.9999 38.4318 36.4355 39 35.9999 39C35.5643 39 35.9999 38.4314 35.9999 38C35.9999 37.5686 35.5639 37 35.9999 37ZM40.9999 36H30.9999V40H40.9999V36ZM42.9999 35C43.257 35.2991 43.2794 35.7123 42.9999 36V35ZM3.99993 6H23.9999C24.715 6 25.53 6.52407 25.9999 7C26.4686 7.46461 26.9999 8.28084 26.9999 9V22C26.9999 22.7192 26.4686 23.535 25.9999 24C25.7595 24.2426 25.3166 24.8689 24.9999 25C24.6832 25.1311 24.3432 25.0008 23.9999 25H3.99993C3.28485 25 2.48047 24.4759 1.99993 24C1.75775 23.7604 1.13038 23.3134 0.999934 23C0.869484 22.6866 0.998563 22.339 0.999934 22V9C0.999934 8.28084 1.53044 7.46461 1.99993 7C2.48047 6.52407 3.28485 6 3.99993 6ZM24.9999 20H2.99993V22C2.99993 22.2877 2.80993 22.8118 2.99993 23C3.18994 23.1773 3.72044 23 3.99993 23H23.9999C24.2905 23 24.821 23.1769 24.9999 23C24.9463 23.1254 25.0982 22.9047 24.9999 23C25.0536 22.8746 24.9992 22.1362 24.9999 22V20ZM2.99993 18H24.9999V9C24.9999 8.71265 25.1895 8.18819 24.9999 8C24.8073 7.80899 24.2725 8.00051 23.9999 8H3.99993C3.72084 8 3.18994 7.82275 2.99993 8C2.90327 8.09579 3.05171 7.87465 2.99993 8C2.94816 8.12535 2.99878 8.86457 2.99993 9V18ZM13.9999 21C14.4355 21 14.9999 21.5686 14.9999 22C14.9999 22.4314 14.4355 22 13.9999 22C13.5643 22 12.9999 22.4314 12.9999 22C12.9999 21.5686 13.5639 21 13.9999 21Z" fill="white"/>
<path d="M11.9999 24H16.9999C17.4371 24 17.9999 24.5671 17.9999 25V29C17.9991 29.2088 18.1491 29.8523 17.9999 30C17.8507 30.1477 17.2109 29.9992 16.9999 30H11.9999C11.5627 30 10.9999 29.4332 10.9999 29V25C10.9607 25.0946 10.9993 24.8977 10.9999 25C11.0391 24.9054 10.9269 24.0723 10.9999 24C10.9044 24.0389 11.0729 23.9277 10.9999 24C11.0954 23.9611 11.8966 23.9994 11.9999 24ZM15.9999 26H12.9999V28H15.9999V26ZM39.9999 5.99998C39.7427 5.65606 39.6521 5.2444 39.9999 4.99998C40.3584 4.74458 40.7534 4.65567 40.9999 4.99998L47.9999 14C48.2579 14.3439 48.3477 14.7446 47.9999 15C47.9154 15.061 47.1016 15.9759 46.9999 16C46.8981 16.0241 47.1032 16.0165 46.9999 16C46.8966 15.9834 47.0888 15.0546 46.9999 15C46.911 14.9454 46.0607 15.0843 45.9999 15L39.9999 5.99998ZM46.9999 19C46.9225 19.0684 47.0443 18.9071 46.9999 19C46.9017 19.0331 47.0773 18.9316 46.9999 19C47.0981 18.9668 46.8964 18.9926 46.9999 19C47.1034 19.0074 47.9075 18.9532 47.9999 19C47.9315 18.9231 48.0929 19.045 47.9999 19C47.9665 18.903 48.0683 19.0769 47.9999 19C48.0066 18.8977 48.0333 19.097 47.9999 19C47.9931 19.1022 48.0457 19.9081 47.9999 20L42.9999 30C42.7981 30.3885 42.3924 30.2001 41.9999 30C41.9069 29.955 42.0683 30.0768 41.9999 30C41.9315 29.9231 42.0332 29.097 41.9999 29C41.9666 28.903 40.993 29.1022 40.9999 29C41.0068 28.8978 41.9539 29.0917 41.9999 29L46.9999 19Z" fill="white"/>
<path d="M47 15C46.7973 14.9996 46.1874 14.924 46 15C45.8127 15.0759 46.1433 14.8593 46 15C45.8567 15.1407 45.0774 15.8161 45 16C44.9227 16.1839 44.9995 15.801 45 16C44.9985 16.1998 44.9232 16.815 45 17C45.0768 17.185 45.8566 16.8582 46 17C46.1434 17.1418 45.8121 17.9232 46 18C46.1879 18.0767 46.7965 18 47 18C46.8113 18.0765 47.2042 18.0004 47 18C47.1887 17.9235 47.8556 17.1417 48 17C47.922 17.1852 48.1444 16.8583 48 17C48.078 16.8148 48.0004 16.2004 48 16C48.0001 15.8002 48.0782 16.1845 48 16C47.9218 15.8155 48.1445 15.1408 48 15C47.8555 14.8592 47.1885 15.0754 47 15C47.2036 14.9985 46.8115 14.9246 47 15ZM47 13C48.7211 13 50 14.3219 50 16C50 17.6885 48.7211 19 47 19C45.2907 19 44 17.6885 44 16C44.0004 14.3223 45.2801 13 47 13ZM36 1.99998L38 -1.69426e-05C38.5061 -0.379533 39.3683 -0.0793554 40 -1.69426e-05C40.6105 0.0653235 40.5779 0.498399 41 0.999983H42C42.4002 1.50758 42.0804 2.36303 42 2.99998C41.9334 3.60996 41.5326 4.58603 41 4.99998L39 6.99998C39.0329 6.70595 39.0552 7.29401 39 6.99998C38.8975 7.8571 38.6868 9.46108 38 9.99998L36 11C35.9201 11.0635 36.0987 10.9716 36 11C35.9014 11.0284 35.1022 11.0111 35 11C34.8978 10.9888 35.0899 11.049 35 11C34.9101 10.951 35.0637 11.0792 35 11L30 4.99998C29.9364 4.92065 30.0277 5.09722 30 4.99998C29.9723 4.90275 29.9876 5.10021 30 4.99998C30.0125 4.89975 29.9493 4.08784 30 3.99998C29.9188 4.06199 30.0507 3.91213 30 3.99998L32 2.99998C32.689 2.47203 34.1322 1.89767 35 1.99998C35.3062 2.03116 35.7176 1.8796 36 1.99998ZM37 5.99998L36 3.99998C35.7337 3.65137 35.4437 3.05456 35 2.99998C34.541 2.94488 33.3655 3.72181 33 3.99998L32 4.99998L36 8.99998L37 7.99998C37.3564 7.71412 37.9434 7.44829 38 6.99998C38.0552 6.52108 37.2882 6.38126 37 5.99998ZM39 1.99998L37 2.99998L39 4.99998L40 3.99998C40.1997 3.85854 40.9777 3.22867 41 2.99998C41.0175 2.88484 41.0307 3.11245 41 2.99998C40.9694 2.88751 41.0738 2.09116 41 1.99998H40C39.8485 1.81612 39.2395 2.02562 39 1.99998C39.1144 1.97004 38.8827 1.98462 39 1.99998C39.094 1.9293 38.8856 2.02993 39 1.99998ZM31 19H36C36.455 19 36.7004 18.7167 37 19C37.2981 19.3004 36.9995 20.5807 37 21H38C38.6211 21.0002 39.5609 20.5689 40 21C40.4391 21.4311 39.9999 22.3904 40 23V25C40 26.2641 39.2872 27 38 27H37V28C37 28.4247 36.4327 29 36 29H30C29.7912 28.9992 29.1477 29.1449 29 29C28.8523 28.8551 29.0009 28.205 29 28V21C29 20.1283 30.1119 19 31 19ZM37 22V25H38C38.2059 24.9994 38.8544 25.1429 39 25C38.9994 25.202 39.1456 24.8571 39 25V23C39.0006 22.8997 39.0388 23.0928 39 23C38.9612 22.9072 39.0723 22.0709 39 22C38.9277 21.9291 38.0946 22.0381 38 22C37.9055 21.9619 38.1022 21.9994 38 22H37ZM36 21H31C30.9671 21 31 20.9673 31 21V27H36V21C36.0337 21 36.0004 20.9781 36 21Z" fill="white"/>
<path d="M1.9999 28H47.9999C48.4202 28 49.7229 27.7196 49.9999 28V29C50.2628 29.2909 49.9992 29.6056 49.9999 30V31C49.9996 31.2087 50.0796 31.8075 49.9999 32C49.9202 32.1925 50.1467 32.8535 49.9999 33C49.8561 33.1461 49.1881 32.9211 48.9999 33C48.8117 33.0789 48.2036 33.0004 47.9999 33H1.9999C1.5792 33 0.276851 33.2911 -9.99644e-05 33C-0.147967 32.8543 0.0798277 32.1926 -9.99644e-05 32C-0.0800276 31.8074 -0.000811476 31.2089 -9.99644e-05 31V30C0.000290584 29.7913 -0.079891 29.1925 -9.99644e-05 29C0.0796911 28.8075 -0.146971 28.1465 -9.99644e-05 28C0.143744 27.854 0.811735 28.0789 0.9999 28C1.18807 27.9211 1.79622 27.9998 1.9999 28ZM47.9999 30H1.9999V31H47.9999V30ZM49.9999 29C50.0101 28.803 50.1232 29.1527 49.9999 29C49.9897 29.197 50.1383 29.8612 49.9999 30" fill="white"/>
</g>
</g>
</g>
<defs>
<clipPath id="clip0_1945_149">
<rect width="50" height="50" fill="white"/>
</clipPath>
<clipPath id="clip1_1945_149">
<rect width="50" height="50" fill="white"/>
</clipPath>
<clipPath id="clip2_1945_149">
<rect width="50" height="50" fill="white"/>
</clipPath>
</defs>
</svg>
